<svg xmlns="http://www.w3.org/2000/svg" xmlns:xlink="http://www.w3.org/1999/xlink" width="381.52" height="65" viewBox="315.465 53.746 381.52 65" enable-background="new 315.465 53.746 381.52 65"><path d="M328.688 106.243v-1.717h-9.598v13.29h1.875v-6.126h6.545v-1.616h-6.545v-3.831h7.723zm13.35-1.717h-1.856v8.302c0 2.115-1.396 3.492-3.612 3.492-2.235 0-3.572-1.377-3.572-3.492v-8.302h-1.855v8.302c0 3.213 2.255 5.228 5.427 5.228s5.468-2.015 5.468-5.228v-8.302zm-6.785-1.136v-1.557h-1.517v1.557h1.517zm4.17 0v-1.557h-1.497v1.557h1.497zm16.283 14.426l-3.093-5.687c1.576-.56 2.733-1.855 2.733-3.712 0-2.355-1.716-3.892-4.45-3.892h-5.826v13.29h1.875v-5.348h3.811l2.834 5.348h2.116v.001zm-2.295-9.258c0 1.356-.978 2.274-2.514 2.274h-3.951v-4.589h3.891c1.537 0 2.574.898 2.574 2.315zm9.174-4.271c-2.674 0-4.65 1.377-4.65 3.771 0 2.515 2.135 3.273 4.39 3.752 2.055.459 3.572.759 3.572 2.334 0 1.438-1.218 2.275-3.014 2.275-1.576 0-3.093-.617-4.011-2.075l-1.536.978c.998 1.656 2.893 2.733 5.407 2.733 3.073 0 5.049-1.636 5.049-4.069 0-2.674-2.355-3.373-4.909-3.972-1.696-.399-3.073-.719-3.073-2.136 0-1.416 1.277-1.936 2.674-1.936 1.517 0 2.813.599 3.652 1.717l1.437-1.019c-1.157-1.535-2.972-2.353-4.988-2.353zm17.949 1.956v-1.717h-10.915v1.717h4.51v11.573h1.875v-11.573h4.53zm12.791 9.858v-9.857h3.252c2.913 0 4.49 1.955 4.49 4.929 0 2.973-1.577 4.929-4.49 4.929h-3.252v-.001zm3.252 1.715c4.131 0 6.446-2.854 6.446-6.645s-2.315-6.645-6.446-6.645h-5.148v13.289h5.148zm11.274 0v-13.289h-1.855v13.289h1.855zm13.374 0v-1.716h-7.743v-4.49h6.565v-1.615h-6.565v-3.752h7.743v-1.717h-9.618v13.29h9.618zm12.952-11.573v-1.717h-10.915v1.717h4.509v11.573h1.876v-11.573h4.53zm13.054 11.573l-3.093-5.687c1.576-.56 2.734-1.855 2.734-3.712 0-2.355-1.716-3.892-4.45-3.892h-5.827v13.29h1.876v-5.348h3.812l2.833 5.348h2.115v.001zm-2.294-9.258c0 1.356-.978 2.274-2.515 2.274h-3.951v-4.589h3.891c1.537 0 2.575.898 2.575 2.315zm6.926 9.258v-13.289h-1.856v13.289h1.856zm14.678-10.855c-1.197-1.716-2.953-2.674-5.228-2.674-3.871 0-6.445 2.914-6.445 6.885 0 3.992 2.574 6.885 6.465 6.885 2.314 0 4.131-1.037 5.268-2.754l-1.537-.998c-.818 1.277-2.115 2.057-3.751 2.057-2.694 0-4.489-2.076-4.489-5.209 0-3.094 1.776-5.148 4.529-5.148 1.656 0 2.894.719 3.711 1.976l1.477-1.02zm13.619 10.855v-13.289h-1.875v5.408h-7.204v-5.408h-1.876v13.289h1.876v-6.186h7.204v6.186h1.875zm7.912-13.529c-2.674 0-4.649 1.377-4.649 3.771 0 2.515 2.135 3.273 4.39 3.752 2.055.459 3.571.759 3.571 2.334 0 1.438-1.217 2.275-3.013 2.275-1.577 0-3.093-.617-4.011-2.075l-1.537.978c.998 1.656 2.894 2.733 5.408 2.733 3.073 0 5.048-1.636 5.048-4.069 0-2.674-2.354-3.373-4.909-3.972-1.696-.399-3.073-.719-3.073-2.136 0-1.416 1.277-1.936 2.674-1.936 1.517 0 2.814.599 3.652 1.717l1.437-1.019c-1.157-1.535-2.972-2.353-4.988-2.353zm17.761 1.956v-1.717h-10.916v1.717h4.51v11.573h1.876v-11.573h4.53zm11.933 11.573v-1.716h-7.743v-4.49h6.564v-1.615h-6.564v-3.752h7.743v-1.717h-9.619v13.29h9.619zm4.758 0v-13.289h-1.856v13.289h1.856zm14.63 0v-13.289h-1.796v10.696l-6.685-10.696h-2.395v13.289h1.796v-10.955l6.885 10.955h2.195zm67.188-13.529c-2.674 0-4.65 1.377-4.65 3.771 0 2.515 2.136 3.273 4.391 3.752 2.056.459 3.572.759 3.572 2.334 0 1.438-1.217 2.275-3.013 2.275-1.577 0-3.093-.617-4.011-2.075l-1.537.978c.998 1.656 2.894 2.733 5.408 2.733 3.073 0 5.049-1.636 5.049-4.069 0-2.674-2.354-3.373-4.908-3.972-1.696-.399-3.074-.719-3.074-2.136 0-1.416 1.277-1.936 2.674-1.936 1.517 0 2.813.599 3.651 1.717l1.438-1.019c-1.159-1.535-2.975-2.353-4.99-2.353zm17.559 1.956v-1.717h-10.915v1.717h4.51v11.573h1.876v-11.573h4.529zm4.275 11.573v-13.289h-1.855v13.289h1.855zm13.353-11.573v-1.717h-9.598v13.29h1.876v-6.126h6.545v-1.616h-6.545v-3.831h7.722zm12.852 0v-1.717h-10.916v1.717h4.51v11.573h1.876v-11.573h4.53zm13.235-1.717h-1.855v8.302c0 2.115-1.397 3.492-3.612 3.492-2.234 0-3.571-1.377-3.571-3.492v-8.302h-1.856v8.302c0 3.213 2.256 5.228 5.428 5.228 3.173 0 5.468-2.015 5.468-5.228v-8.302zm14.109 13.29v-13.289h-1.797v10.696l-6.685-10.696h-2.395v13.289h1.796v-10.955l6.885 10.955h2.196zm9.49-11.812c1.658 0 2.895.719 3.713 1.976l1.476-1.019c-1.195-1.716-2.951-2.674-5.226-2.674-3.893 0-6.446 2.854-6.446 6.865 0 3.99 2.554 6.903 6.506 6.903 3.911 0 6.146-2.854 6.146-6.065 0-.42-.042-.739-.079-.998h-6.089v1.637h4.311c-.179 2.295-1.936 3.731-4.311 3.731-2.793 0-4.528-2.075-4.528-5.188-.001-3.073 1.695-5.168 4.527-5.168z"/><path fill="#C31B27" d="M577.115 86.02l7.449 7.449c-3.31 3.587-13.146 10.979-15.424 12.677-2.361-1.746-12.804-9.535-15.802-12.988-2.446-2.819-3.947-6.515-4.014-9.886-.108-5.575-.03-20.975-.007-25.049l11.75 11.75v17.688l.207-.022.074-.004c.239 0 .648.07.716.512v.051c-.335.019-1.334.132-1.372.848-.012.232.059.441.205.6.124.136.304.229.509.277-.03.288.039.677.447.849l.211.071s.132.714 0 .966c-.365.698-1.449.907-1.449 2.716 0 1.517.863 2.196 1.747 2.509.02.249.105.457.266.614.334.328.846.312.852.311h.025c.11 0 .547-.02.842-.311.161-.157.248-.365.267-.614.884-.312 1.683-1.05 1.671-2.567-.012-1.539-1.085-1.891-1.373-2.657-.086-.228 0-.972 0-.972l.19-.065c.408-.173.478-.562.446-.849.207-.049.386-.143.51-.277.146-.158.217-.367.204-.6-.036-.702-.999-.825-1.353-.848v-.023c.065-.445.416-.539.699-.539l.07.004.209.024v-12.871l6.396 6.397v6.477l.209-.025.071-.002c.282 0 .634.093.699.538v.023c-.354.021-1.317.146-1.354.847-.012.234.059.441.205.601.125.135.304.229.51.276-.031.289.037.677.447.85l.19.065s.085.743 0 .972c-.288.768-1.362 1.117-1.374 2.656-.012 1.518.787 2.256 1.67 2.569.021.248.107.456.267.613.297.291.732.31.843.31h.025c.006.002.518.019.852-.31.16-.157.246-.365.267-.613.883-.313 1.746-.993 1.746-2.511 0-1.809-1.084-2.018-1.448-2.715-.133-.253 0-.967 0-.967l.21-.07c.409-.173.478-.561.447-.85.206-.047.386-.142.509-.276.146-.159.217-.366.205-.601-.037-.715-1.035-.828-1.372-.847v-.051c.066-.441.477-.511.716-.511l.074.005.207.021v-1.661l.011.016z"/><path fill="#F2E43F" d="M588.863 57.961c.028 4.774.104 19.757-.006 25.311-.065 3.372-1.565 7.067-4.014 9.885l-.029.033-7.699-7.699-.008.005v-21.184c.003-.055.084-1.527 1.779-1.527 1.739 0 2.153 1.163 2.248 1.418.145.386.123.36.2.594l.046-.723c.006-.083.113-2.048-1.186-3.432-.837-.893-2.051-1.328-3.64-1.29-4.14.097-4.269 4.361-4.27 4.403v16.906l-6.396-6.397v-10.512c-.001-.043-.13-4.307-4.27-4.404-1.588-.038-2.802.397-3.64 1.291-1.299 1.383-1.191 3.349-1.185 3.432l.045.722c.077-.234.056-.208.201-.594.095-.256.508-1.418 2.248-1.418 1.694 0 1.776 1.473 1.778 1.528v5.137l-11.481-11.483 39.279-.002z"/><path fill="#191A17" d="M576.059 82.556l-.047.154c-.02.025-.08.085-.155.028l-.062-.046c-.271-.205-.509-.376-.715-.329-.183.042-.251.226-.263.264-.046.215.131.448.335.719l.041.055.021.101c-.029.06-.121.104-.182.104l-.021-.003c-.193-.057-.299-.058-.311-.058-.011 0-.116.001-.332.061-.062 0-.152-.045-.181-.104l.02-.101.042-.055c.204-.271.381-.504.327-.742-.017-.041-.108-.243-.307-.243h-.001c-.175.008-.396.122-.738.378-.076.057-.137-.001-.155-.028l-.047-.154c.057-.195.059-.3.059-.311 0-.011-.002-.116-.059-.311l.047-.154c.02-.026.079-.086.155-.029l.062.047c.271.205.509.375.715.329.182-.042.25-.225.262-.264.046-.215-.131-.448-.335-.719l-.04-.055-.021-.101c.03-.059.123-.101.203-.101.194.057.299.058.311.058s.116 0 .332-.061c.062 0 .152.045.182.104l-.02.101-.055.073c-.201.266-.376.496-.32.708.046.176.201.246.276.257.207.046.446-.129.72-.334l.056-.042c.075-.057.136.003.155.029l.047.154c-.057.194-.058.3-.058.311-.002.01 0 .115.057.31zm.177-.945c-.139-.185-.365-.221-.549-.084l-.056.042c-.176.132-.375.282-.496.282h-.003l-.056-.051c-.022-.081.154-.314.271-.469l.055-.073c.093-.125.11-.268.047-.395-.104-.209-.367-.292-.531-.246l-.231.047-.234-.047c-.164-.047-.428.037-.532.246-.063.127-.046.27.047.395l.042.055c.128.17.303.403.289.473l-.067.068c-.1 0-.297-.148-.472-.28l-.062-.047c-.185-.137-.409-.1-.549.084-.09.121-.127.277-.091.4l.047.231-.047.234c-.036.122.001.28.091.401.14.184.364.221.549.084.104-.078.42-.315.567-.326l.043.047c.019.09-.156.322-.284.493l-.042.055c-.093.124-.11.268-.048.395.105.209.368.291.532.245l.231-.047.234.047.1.014c.15 0 .348-.089.432-.259.064-.127.047-.271-.046-.395l-.042-.055c-.128-.171-.304-.403-.289-.474l.068-.067c.1 0 .296.148.47.28l.063.047c.184.138.41.101.55-.084.09-.121.127-.278.091-.4l-.047-.232.047-.234c.035-.122-.001-.278-.092-.4z"/><defs><rect id="a" x="547.351" y="56.043" width="43.482" height="52.484"/></defs><clipPath id="b"><use xlink:href="#a" overflow="visible"/></clipPath><path clip-path="url(#b)" fill="#191A17" d="M564.846 82.556l-.047.154c-.02.026-.08.085-.156.028-.342-.256-.563-.371-.749-.378-.192 0-.286.218-.304.267-.046.215.131.448.334.719l.042.055.021.101c-.029.06-.12.104-.182.104l-.021-.003c-.195-.057-.3-.058-.311-.058-.013 0-.117.001-.333.061-.062 0-.151-.045-.182-.104l.021-.101.042-.055c.203-.271.38-.504.33-.735-.009-.021-.076-.205-.258-.247-.205-.046-.444.125-.715.329l-.062.046c-.076.057-.135-.001-.154-.028-.044-.057-.056-.126-.047-.154.055-.195.058-.3.058-.311 0-.011-.003-.116-.058-.311-.009-.028.003-.097.047-.154.018-.026.078-.086.154-.029l.055.042c.244.183.453.342.649.342l.063-.006c.083-.013.238-.082.284-.258.055-.213-.118-.442-.32-.708l-.054-.073-.021-.101c.03-.059.122-.101.203-.101.194.057.3.058.311.058s.116-.001.332-.061c.062 0 .152.045.182.104l-.021.101-.04.055c-.205.271-.382.505-.33.736.007.022.075.205.258.247.206.047.444-.124.715-.33l.062-.047c.076-.057.136.002.156.029l.046.154c-.057.194-.058.3-.058.311s0 .115.058.31zm.177-.945c-.139-.184-.365-.222-.549-.084l-.062.047c-.174.131-.37.28-.481.28h-.001l-.052-.049c-.02-.089.156-.322.284-.492l.042-.055c.093-.125.11-.268.048-.395-.105-.209-.369-.292-.532-.246l-.231.046-.234-.046c-.165-.047-.428.037-.532.246-.063.127-.046.27.047.395l.055.073c.116.154.293.388.272.468l-.075.055c-.103 0-.304-.151-.48-.285l-.056-.042c-.184-.137-.409-.1-.549.084-.09.122-.127.278-.091.4l.047.232-.047.234c-.036.123.001.28.091.401.14.184.364.222.549.084l.062-.046c.174-.132.37-.28.481-.28h.001l.052.047c.02.09-.157.322-.284.493l-.041.055c-.094.125-.111.268-.048.395.104.209.366.291.532.246l.231-.047.234.047.099.013c.151 0 .349-.089.433-.259.063-.127.046-.271-.048-.395l-.041-.055c-.127-.171-.303-.403-.292-.469l.035-.068c.163.008.479.245.583.323.185.139.41.101.55-.084.09-.122.127-.278.091-.4l-.047-.232.047-.234c.034-.123-.002-.279-.093-.401z"/><defs><rect id="c" x="547.351" y="56.043" width="43.482" height="52.484"/></defs><clipPath id="d"><use xlink:href="#c" overflow="visible"/></clipPath><path clip-path="url(#d)" fill="#191A17" d="M577.115 85.491l-.008.005v-21.184c.003-.055.084-1.527 1.779-1.527 1.739 0 2.153 1.163 2.248 1.418.145.386.123.36.2.594l.046-.723c.006-.083.113-2.048-1.186-3.432-.837-.893-2.051-1.328-3.64-1.29-4.14.097-4.269 4.361-4.27 4.403v16.906l-6.396-6.397v-10.512c-.001-.043-.13-4.307-4.27-4.404-1.588-.038-2.802.397-3.64 1.291-1.299 1.383-1.191 3.349-1.185 3.432l.045.722c.077-.234.056-.208.201-.594.095-.256.508-1.418 2.248-1.418 1.694 0 1.776 1.473 1.778 1.528v5.137l-11.481-11.483h39.277c.027 4.774.104 19.757-.006 25.311-.066 3.371-1.566 7.067-4.015 9.886l-.028.033-7.697-7.702zm-1.378 2.633l-.001.554c-.264.023-.649.033-.99.031h-.098c-.351.003-.748-.008-1.011-.032v-.525c-.105-.729-.691-.861-.978-.882v-23.51c.004-.157.126-3.944 3.904-4.032 1.472-.037 2.596.36 3.357 1.172.714.76.962 1.736 1.046 2.399-.356-.428-.993-.889-2.081-.889-2.061 0-2.152 1.877-2.153 1.896v22.963c-.55.031-.92.346-.995.855zm-1.039 2.491c-.011 0-.583.005-1.061-.074-.14-.022-.269-.054-.374-.093l-.045-.018c-.229-.095-.239-.322-.223-.468l.268.003h.374l.345-.002c.463-.003.965-.003 1.429 0l.325.002h.373l.287-.003c.018.146.006.373-.222.468l-.065.025c-.107.038-.237.067-.374.088-.472.077-1.03.072-1.037.072zm.718 6.538c-.026.091-.068.169-.132.229-.216.215-.588.205-.591.205-.018-.001-.39.01-.605-.205-.063-.061-.105-.139-.132-.229.284.067.541.095.729.095s.446-.027.731-.095zm-.072-.376c-.551.092-.998.068-1.224.025-.188-.035-.427-.111-.518-.159-1.015-.543-1.341-1.059-1.331-2.184.006-.846.374-1.25.764-1.679.252-.276.514-.563.66-.952.113-.304.08-.426.032-.848.89.157 1.903-.021 1.903-.021-.007.328-.035.603.078.914.122.333.388.554.619.769.433.406.843.788.843 1.875 0 1.084-.464 1.784-1.455 2.156-.084.034-.281.088-.371.104zm1.016-8.173c.335.052.733.183.747.464.008.135-.027.242-.106.328-.104.113-.286.184-.496.189l-.396.006h-.373l-.323-.004-.702-.002h-.029l-.701.002-.343.004h-.374l-.376-.006c-.21-.006-.392-.076-.496-.189-.079-.086-.113-.193-.106-.328.015-.282.413-.412.748-.465l-.009.136c.019.104.086.187.19.233l.049.016c.089.029.221.049.374.063.364.033.83.033 1.013.031h.094c.178.002.631.003.992-.029.151-.014.281-.032.373-.06l.069-.021c.104-.047.172-.13.188-.233l-.007-.135zm-11.822-.457v.524c-.262.025-.66.036-1.011.032h-.099c-.34.003-.728-.007-.99-.03v-.553c-.074-.509-.444-.825-.996-.855v-22.964c-.001-.019-.093-1.896-2.153-1.896-1.089 0-1.727.461-2.082.888.085-.664.333-1.64 1.047-2.399.762-.812 1.885-1.208 3.357-1.172 3.778.088 3.9 3.875 3.904 4.033v23.509c-.286.022-.871.154-.977.883zm-1.061 2.464c-.007-.001-.563.004-1.037-.071-.137-.022-.266-.051-.373-.089l-.065-.024c-.227-.096-.24-.322-.222-.468l.287.003h.373l.324-.003c.464-.003.968-.003 1.43 0l.345.003h.373l.268-.003c.018.145.007.373-.222.468l-.045.018c-.106.039-.236.069-.374.093-.477.078-1.051.073-1.062.073zm.742 6.537c-.026.091-.068.168-.131.23-.217.215-.588.203-.605.204-.004 0-.375.011-.592-.204-.063-.062-.105-.14-.132-.23.284.067.542.095.729.095.19 0 .448-.027.731-.095zm-.163-.35c-.227.043-.673.067-1.224-.025-.091-.017-.287-.07-.373-.104-.99-.37-1.454-1.07-1.454-2.156 0-1.085.41-1.468.843-1.872.231-.217.522-.417.634-.752.134-.405.079-.596.063-.933 0 0 1.014.179 1.903.022-.048.422-.041.539.033.847.099.403.407.675.659.952.39.428.758.833.764 1.679.009 1.125-.316 1.641-1.331 2.183-.091.049-.329.124-.517.159zm1.087-8.199c.335.054.732.183.748.466.007.135-.028.241-.106.328-.105.113-.286.182-.497.188l-.376.006h-.373l-.343-.002-.702-.004h-.028l-.703.004-.322.002h-.373l-.396-.006c-.21-.007-.391-.075-.496-.188-.078-.086-.113-.193-.106-.328.015-.282.413-.412.748-.465l-.007.135c.017.104.084.188.188.234l.069.021c.092.026.223.045.373.059.361.033.814.031.991.029h.095c.182.002.648.002 1.013-.032.153-.014.285-.033.373-.062l.05-.016c.104-.047.172-.131.189-.234l-.009-.135zm-3.868-.96l.074-.004c.239 0 .648.07.716.512v.051c-.335.019-1.334.132-1.372.848-.012.232.059.441.205.6.124.136.304.229.509.277-.03.288.039.677.447.849l.211.071s.132.714 0 .966c-.365.698-1.449.907-1.449 2.716 0 1.517.863 2.196 1.747 2.509.02.249.105.457.266.614.334.328.846.312.852.311h.025c.11 0 .547-.02.842-.311.161-.157.248-.365.267-.614.884-.312 1.683-1.05 1.671-2.567-.012-1.539-1.085-1.891-1.373-2.657-.086-.228 0-.972 0-.972l.19-.065c.408-.173.478-.562.446-.849.207-.049.386-.143.51-.277.146-.158.217-.367.204-.6-.036-.702-.999-.825-1.353-.848v-.023c.065-.445.416-.539.699-.539l.07.004.209.024v-12.871l6.396 6.397v6.477l.209-.025.071-.002c.282 0 .634.093.699.538v.023c-.354.021-1.317.146-1.354.847-.012.234.059.441.205.601.125.135.304.229.51.276-.031.289.037.677.447.85l.19.065s.085.743 0 .972c-.289.768-1.362 1.117-1.374 2.656-.012 1.518.787 2.256 1.67 2.569.021.248.107.456.267.613.297.291.732.31.843.31h.025c.006.002.518.019.852-.31.16-.157.246-.365.267-.613.883-.313 1.746-.993 1.746-2.511 0-1.809-1.084-2.018-1.448-2.715-.133-.253 0-.967 0-.967l.21-.07c.409-.173.478-.561.447-.85.206-.047.386-.142.509-.276.146-.159.217-.366.205-.601-.037-.715-1.035-.828-1.372-.847v-.051c.066-.441.477-.511.716-.511l.074.005.207.021v-1.661l.009.016 7.449 7.449c-3.311 3.586-13.146 10.979-15.424 12.676-2.362-1.745-12.805-9.534-15.802-12.988-2.447-2.818-3.948-6.514-4.014-9.885-.109-5.575-.03-20.975-.008-25.048l11.75 11.75v17.688l.21-.023zm29.502-30.523l-.008-1.073h-43.355l-.007 1.064c-.021 3.333-.116 20.262.001 26.202.074 3.806 1.75 7.958 4.482 11.106 3.513 4.047 16.137 13.296 16.673 13.687l.582.426.581-.428c.129-.095 12.986-9.561 16.566-13.685 2.732-3.147 4.409-7.3 4.484-11.106.117-5.916.021-22.857.001-26.193z"/><path fill="#fff" d="M548.55 57.769c-.026 4.583-.104 19.963.005 25.518.07 3.547 1.641 7.426 4.202 10.376 3.106 3.579 13.906 11.611 16.039 13.185l.348.258.348-.26c2.116-1.573 12.834-9.609 15.936-13.183 2.562-2.952 4.134-6.831 4.202-10.376.112-5.649.032-20.958.006-25.517l-.004-.58h-41.075l-.007.579zm20.497 49.673c-1.342-.983-13.184-9.698-16.539-13.563-2.61-3.009-4.211-6.965-4.283-10.586-.115-5.912-.021-22.835 0-26.168l.002-.264h41.73l.001.164c.002.178.128 19.812 0 26.269-.07 3.621-1.672 7.579-4.282 10.586-3.501 4.034-16.306 13.468-16.435 13.562l-.098.072-.096-.072z"/></svg>